<?xml version="1.0" encoding="utf-8"?>
<!-- Generator: Adobe Illustrator 17.1.0, SVG Export Plug-In . SVG Version: 6.00 Build 0)  -->
<!DOCTYPE svg PUBLIC "-//W3C//DTD SVG 1.1//EN" "http://www.w3.org/Graphics/SVG/1.1/DTD/svg11.dtd">
<svg version="1.1" id="Layer_1" xmlns="http://www.w3.org/2000/svg" xmlns:xlink="http://www.w3.org/1999/xlink" x="0px" y="0px"
	 viewBox="0 0 141.7 141.7" enable-background="new 0 0 141.7 141.7" xml:space="preserve">
<g>
	<g>
		<path fill="#686868" stroke="#FFFFFF" stroke-width="0.25" stroke-miterlimit="10" d="M136.3,102.6H4.6c-2.8,0-5-2.3-5-5V17.1
			c0-2.8,2.3-5,5-5h131.7c2.8,0,5,2.3,5,5v80.5C141.3,100.3,139.1,102.6,136.3,102.6z M4.6,14.8c-1.3,0-2.3,1-2.3,2.3v80.5
			c0,1.3,1,2.3,2.3,2.3h131.7c1.3,0,2.3-1,2.3-2.3V17.1c0-1.3-1-2.3-2.3-2.3H4.6z"/>
	</g>
	<g>
		<path fill="#686868" stroke="#FFFFFF" stroke-width="0.25" stroke-miterlimit="10" d="M129,91.6H11.9c-0.8,0-1.4-0.6-1.4-1.4V24.4
			c0-0.8,0.6-1.4,1.4-1.4H129c0.8,0,1.4,0.6,1.4,1.4v65.8C130.4,91,129.8,91.6,129,91.6z M13.3,88.9h114.3V25.8H13.3V88.9z"/>
	</g>
	<g>
		<path fill="#686868" stroke="#FFFFFF" stroke-width="0.25" stroke-miterlimit="10" d="M96.1,128.2H44.9c-0.8,0-1.4-0.6-1.4-1.4
			v-5.5c0-3.9,2.9-6.8,6.8-6.8h40.2c3.8,0,6.8,3.1,6.8,7.1v5.2C97.4,127.6,96.8,128.2,96.1,128.2z M46.2,125.5h48.5v-3.8
			c0-2.5-1.8-4.4-4.1-4.4H50.4c-2.4,0-4.1,1.7-4.1,4.1V125.5z"/>
	</g>
	<g>
		<path fill="#686868" stroke="#FFFFFF" stroke-width="0.25" stroke-miterlimit="10" d="M70.5,109.9c-0.8,0-1.4-0.6-1.4-1.4v-5.5
			c0-0.8,0.6-1.4,1.4-1.4c0.8,0,1.4,0.6,1.4,1.4v5.5C71.8,109.3,71.2,109.9,70.5,109.9z"/>
	</g>
</g>
</svg>
