<?xml version="1.0" encoding="utf-8"?>
<!-- Generator: Adobe Illustrator 17.1.0, SVG Export Plug-In . SVG Version: 6.00 Build 0)  -->
<!DOCTYPE svg PUBLIC "-//W3C//DTD SVG 1.1//EN" "http://www.w3.org/Graphics/SVG/1.1/DTD/svg11.dtd">
<svg version="1.1" id="Layer_1" xmlns="http://www.w3.org/2000/svg" xmlns:xlink="http://www.w3.org/1999/xlink" x="0px" y="0px"
	 viewBox="0 0 841.9 595.3" enable-background="new 0 0 841.9 595.3" xml:space="preserve">
<path d="M716.6,114.5L602.8,0.8l-248,247.6l-5.2,5.2l-0.8,10.1l-0.6,7.6l-4.5,57.6l-0.2,4.2l-0.4,3.6l-2.6,32.8l35.9,0.5l7.8-0.2
	l7.6,0.4l56.3,0.9l3.5-0.5l3.4,0.6l4.8,0.1L567.1,264v288.3h-400V149.4h277.1v-42.8H123.1v488.1h488.1V263.9h-44L716.6,114.5z
	 M603.2,62.5l51.7,52l-3.7,3.7l-51.8-51.8L603.2,62.5z M394.8,326.3l-6.2-6.2l0.6-7.9l14.2,14.2L394.8,326.3z M454.2,315.1l-52-52
	L568.3,97.3l51.9,51.9L454.2,315.1z"/>
</svg>
