<?xml version="1.0" encoding="utf-8"?>
<!-- Generator: Adobe Illustrator 17.1.0, SVG Export Plug-In . SVG Version: 6.00 Build 0)  -->
<!DOCTYPE svg PUBLIC "-//W3C//DTD SVG 1.1//EN" "http://www.w3.org/Graphics/SVG/1.1/DTD/svg11.dtd">
<svg version="1.1" id="Layer_1" xmlns="http://www.w3.org/2000/svg" xmlns:xlink="http://www.w3.org/1999/xlink" x="0px" y="0px"
	 viewBox="0 0 841.9 595.3" enable-background="new 0 0 841.9 595.3" xml:space="preserve">
<g>
	<polygon fill="#686868" stroke="#696968" stroke-miterlimit="10" points="-221.6,-54.2 -221.6,-54.2 -221.6,-21.4 -246.4,-21.4 
		-246.4,-54.2 -221.6,-54.2 -221.6,-54.2 -221.6,-54.2 -221.6,-54.2 -221.6,-54.6 -246.8,-54.6 -246.8,-21 -221.2,-21 -221.2,-54.6 
		-221.6,-54.6 	"/>
	<line fill="none" stroke="#696968" stroke-miterlimit="10" x1="-251" y1="-54.6" x2="-217" y2="-54.6"/>
	<polyline fill="#686868" stroke="#696968" stroke-miterlimit="10" points="-250.6,-54.2 -216.6,-54.2 -216.6,-54.6 -250.6,-54.6 	
		"/>
	<polygon fill="#686868" stroke="#696968" stroke-miterlimit="10" points="-239.7,-54.2 -239.2,-54.2 -239.2,-58 -227.9,-58 
		-227.9,-54.6 -239.7,-54.6 -239.7,-54.2 -239.2,-54.2 -239.7,-54.2 -239.7,-54.2 -227.5,-54.2 -227.5,-58.4 -239.7,-58.4 
		-239.7,-54.2 	"/>
	<polyline fill="#686868" stroke="#696968" stroke-miterlimit="10" points="-240.1,-48.3 -240.1,-27.3 -239.7,-27.3 -239.7,-48.3 	
		"/>
	<polyline fill="#686868" stroke="#696968" stroke-miterlimit="10" points="-234.2,-48.3 -234.2,-27.3 -233.8,-27.3 -233.8,-48.3 	
		"/>
	<polyline fill="#686868" stroke="#696968" stroke-miterlimit="10" points="-227.9,-48.3 -227.9,-27.3 -227.5,-27.3 -227.5,-48.3 	
		"/>
</g>
<g>
	<g>
		<path fill="#686868" stroke="#696968" stroke-miterlimit="10" d="M-321.6-29.4H-364c-0.8,0-1.7-0.8-1.7-1.7v-26
			c0-0.8,0.8-1.7,1.7-1.7h42.4c0.8,0,1.7,0.8,1.7,1.7v26C-320.3-30.2-320.7-29.4-321.6-29.4z M-364-58c-0.4,0-0.8,0.4-0.8,0.8v26
			c0,0.4,0.4,0.8,0.8,0.8h42.4c0.4,0,0.8-0.4,0.8-0.8v-26c0-0.4-0.4-0.8-0.8-0.8H-364z"/>
	</g>
	<g>
		<path fill="#686868" stroke="#696968" stroke-miterlimit="10" d="M-324.1-33.2h-37.8c-0.4,0-0.4,0-0.4-0.4v-21
			c0-0.4,0-0.4,0.4-0.4h37.8c0.4,0,0.4,0,0.4,0.4v21C-323.7-33.2-323.7-33.2-324.1-33.2z M-361.5-34h37v-20.2h-37V-34z"/>
	</g>
	<g>
		<path fill="#686868" stroke="#696968" stroke-miterlimit="10" d="M-334.6-21.4H-351c-0.4,0-0.4,0-0.4-0.4v-1.7
			c0-1.3,0.8-2.1,2.1-2.1h13c1.3,0,2.1,0.8,2.1,2.1v1.7C-334.2-21.4-334.6-21.4-334.6-21.4z M-351-22.3h15.5v-1.3
			c0-0.8-0.4-1.3-1.3-1.3h-13c-0.8,0-1.3,0.4-1.3,1.3L-351-22.3L-351-22.3z"/>
	</g>
	<g>
		<path fill="#686868" stroke="#696968" stroke-miterlimit="10" d="M-343-27.3c-0.4,0-0.4,0-0.4-0.4v-1.7c0-0.4,0-0.4,0.4-0.4
			c0.4,0,0.4,0,0.4,0.4v1.7C-342.6-27.3-342.6-27.3-343-27.3z"/>
	</g>
</g>
<path fill="#333333" d="M842.7,272.7L521.4,17v141.7c-202.4,19.4-357.8,117-462,290c-27,44.7-42.9,72.8-50.1,88.5
	c-6.7,14.6-6.5,19.6-3.4,25.1l0.3,0.4l-5.4,9.2l7.2-6.2l3,4.7h8.9c6.1,0,11.7-3.1,15.7-8.9c18.7-20.3,87.8-84.3,136.8-111.9
	c84.7-47.8,182.6-72,291-72c21.5,0,40.5,0.7,58,2.2v148.6L842.7,272.7z M552.8,187.9V81.4l240.4,190.7L552.8,463.4V350.7l-14.3-1
	c-24.7-2.3-49.8-3.5-74.6-3.5c-114.3,0-217.5,25.6-306.8,76c-30,16.8-62.4,43-79.5,57.6c3.1-5.1,6.2-10.1,8.9-14.8
	c100.9-167.8,245.7-257.9,442.7-275.5L552.8,187.9z"/>
</svg>
