<?xml version="1.0" encoding="utf-8"?>
<!-- Generator: Adobe Illustrator 17.1.0, SVG Export Plug-In . SVG Version: 6.00 Build 0)  -->
<!DOCTYPE svg PUBLIC "-//W3C//DTD SVG 1.1//EN" "http://www.w3.org/Graphics/SVG/1.1/DTD/svg11.dtd">
<svg version="1.1" id="Layer_1" xmlns="http://www.w3.org/2000/svg" xmlns:xlink="http://www.w3.org/1999/xlink" x="0px" y="0px"
	 viewBox="0 0 841.9 595.3" enable-background="new 0 0 841.9 595.3" xml:space="preserve">
<g>
	<path fill="#333333" d="M420.9-1.6c-124.2,0-225.3,101.2-225.3,225.7c0,183.4,205.4,358.2,214.2,365.5c3.1,2.6,7.1,4.1,11.1,4.1
		c4,0,7.9-1.4,11-4c5.8-4.8,58.2-48.8,110.1-115.1c30.3-38.6,54.4-77.3,71.6-114.9c21.6-47.1,32.6-92.7,32.6-135.7
		C646.2,99.6,545.2-1.6,420.9-1.6z M611.6,224.1c0,64.8-28.7,136.5-85.3,213.3C485.8,492.2,442.4,534,421,553.2
		c-19.2-17.6-64.3-61.2-105.4-117.1C259,359,230.3,287.7,230.3,224.1C230.3,118.7,315.8,33,420.9,33S611.6,118.7,611.6,224.1z"/>
	<path fill="#333333" d="M420.9,106.9c-64.4,0-116.8,52.4-116.8,116.8s52.4,116.8,116.8,116.8c64.4,0,116.8-52.4,116.8-116.8
		S485.3,106.9,420.9,106.9z M503.1,223.7c0,45.3-36.9,82.2-82.2,82.2c-45.3,0-82.2-36.9-82.2-82.2s36.9-82.2,82.2-82.2
		C466.3,141.5,503.1,178.3,503.1,223.7z"/>
</g>
</svg>
