<?xml version="1.0" encoding="utf-8"?>
<!-- Generator: Adobe Illustrator 17.1.0, SVG Export Plug-In . SVG Version: 6.00 Build 0)  -->
<!DOCTYPE svg PUBLIC "-//W3C//DTD SVG 1.1//EN" "http://www.w3.org/Graphics/SVG/1.1/DTD/svg11.dtd">
<svg version="1.1" id="Layer_1" xmlns="http://www.w3.org/2000/svg" xmlns:xlink="http://www.w3.org/1999/xlink" x="0px" y="0px"
	 viewBox="0 0 841.9 595.3" enable-background="new 0 0 841.9 595.3" xml:space="preserve">
<g>
	<polygon fill="#333333" points="158,45.2 660.3,45.2 660.3,401.6 706.3,401.6 706.3,1 112,1 112,595.2 499.7,595.2 499.7,550.9 
		158,550.9 	"/>
	<polygon fill="#333333" points="597.8,400.8 525.7,470.6 655.5,597 727.6,527.1 	"/>
	<path fill="#333333" d="M252.7,294.8v8.7c2.2,89.4,77.3,161,169.3,161c93.3,0,169.3-74.2,169.3-165.4s-76-165.4-169.3-165.4
		C329.9,133.8,254.8,205.9,252.7,294.8z M537.4,299.2c0,62.1-52.1,112.9-115.9,112.9s-115.9-50.8-115.9-112.9
		c0.4-62.1,52.5-112.9,115.9-112.9C485.3,186.3,537.4,237.1,537.4,299.2z"/>
</g>
</svg>
