<?xml version="1.0" encoding="utf-8"?>
<!-- Generator: Adobe Illustrator 17.1.0, SVG Export Plug-In . SVG Version: 6.00 Build 0)  -->
<!DOCTYPE svg PUBLIC "-//W3C//DTD SVG 1.1//EN" "http://www.w3.org/Graphics/SVG/1.1/DTD/svg11.dtd">
<svg version="1.1" id="Layer_1" xmlns="http://www.w3.org/2000/svg" xmlns:xlink="http://www.w3.org/1999/xlink" x="0px" y="0px"
	 viewBox="0 0 841.9 595.3" enable-background="new 0 0 841.9 595.3" xml:space="preserve">
<g>
	<path fill="#010202" d="M635.8,0l-52.5,0.1l0-0.1l-87.1,0.2L123.3,0.8l0.8,594.4h104.6h386.1h103.8h0.4V79L635.8,0z M268.7,340.7
		l304.2-0.8l0.8,214l-305,0.5V340.7z M614.4,299.1L227.9,300l0.4,147.7v106.8l-63.9,0.1V41.2h99.3l0.6,137h319.3l-0.3-137H619l58,55
		l0.8,457.5l-63.1,0.1L614.4,299.1z M305.2,41.2h237.4l0.8,95.4l-238.2,0.8V41.2z"/>
	<path fill="#010202" d="M525.8,49.2h-31.5c-2.9,0-5.9,2.5-5.9,5.9v68.1c0,2.9,2.5,5.9,5.9,5.9h31.9c2.9,0,5.5-2.5,5.5-5.9V55
		C531.6,52.1,529.1,49.2,525.8,49.2z M519.9,117.2h-19.7V60.9h19.7V117.2z"/>
</g>
</svg>
