<?xml version="1.0" encoding="utf-8"?>
<!-- Generator: Adobe Illustrator 17.1.0, SVG Export Plug-In . SVG Version: 6.00 Build 0)  -->
<!DOCTYPE svg PUBLIC "-//W3C//DTD SVG 1.1//EN" "http://www.w3.org/Graphics/SVG/1.1/DTD/svg11.dtd">
<svg version="1.1" id="Layer_1" xmlns="http://www.w3.org/2000/svg" xmlns:xlink="http://www.w3.org/1999/xlink" x="0px" y="0px"
	 viewBox="0 0 841.9 595.3" enable-background="new 0 0 841.9 595.3" xml:space="preserve">
<g>
	
		<rect x="105.9" y="292.1" transform="matrix(-0.7071 -0.7071 0.7071 -0.7071 -7.4512 761.7172)" fill="#333333" width="96.2" height="180.7"/>
	<path fill="#333333" d="M536.4,170.9h-23v0L536.4,170.9C536.4,76.8,460.2,0,365.5,0c-94.2,0-170.9,76.3-170.9,170.9
		c0,94.2,76.3,170.9,170.9,170.9C459.7,341.9,536.4,265.6,536.4,170.9z M366,295.3c-68.6,0-124.4-55.8-124.4-124.4
		S297.4,46.6,366,46.6s124.4,55.8,124.4,124.4S434.6,295.3,366,295.3z"/>
	<polygon fill="#333333" points="650.8,408.9 650.8,268.2 606.3,268.2 606.3,408.9 465,408.9 465,453.5 606.3,453.5 606.3,594.2 
		650.8,594.2 650.8,453.5 791.6,453.5 791.6,408.9 	"/>
</g>
</svg>
