<?xml version="1.0" encoding="utf-8"?>
<!-- Generator: Adobe Illustrator 17.1.0, SVG Export Plug-In . SVG Version: 6.00 Build 0)  -->
<!DOCTYPE svg PUBLIC "-//W3C//DTD SVG 1.1//EN" "http://www.w3.org/Graphics/SVG/1.1/DTD/svg11.dtd">
<svg version="1.1" id="Layer_1" xmlns="http://www.w3.org/2000/svg" xmlns:xlink="http://www.w3.org/1999/xlink" x="0px" y="0px"
	 viewBox="0 0 141.7 141.7" enable-background="new 0 0 141.7 141.7" xml:space="preserve">
<g>
	<polygon fill="#333333" points="20.1,139.9 0,120.4 37.7,83.6 57.8,103.2 	"/>
	<path fill="#333333" d="M134.9,50.9h-6.8c0,19.8-16.4,35.8-36.7,35.8c-20.3,0-36.7-16-36.7-35.8c0-19.8,16.4-35.8,36.7-35.8
		c20.3,0,36.7,16,36.7,35.8H134.9h6.8c0-27.1-22.6-49.1-50.4-49.1c-27.8,0-50.4,22-50.4,49.1c0,27.1,22.6,49.1,50.4,49.1
		c27.8,0,50.4-22,50.4-49.1H134.9z"/>
</g>
</svg>
