<?xml version="1.0" encoding="utf-8"?>
<!-- Generator: Adobe Illustrator 17.1.0, SVG Export Plug-In . SVG Version: 6.00 Build 0)  -->
<!DOCTYPE svg PUBLIC "-//W3C//DTD SVG 1.1//EN" "http://www.w3.org/Graphics/SVG/1.1/DTD/svg11.dtd">
<svg version="1.1" id="Layer_1" xmlns="http://www.w3.org/2000/svg" xmlns:xlink="http://www.w3.org/1999/xlink" x="0px" y="0px"
	 viewBox="0 0 841.9 595.3" enable-background="new 0 0 841.9 595.3" xml:space="preserve">
<g>
	<polygon fill="#686868" stroke="#696968" stroke-miterlimit="10" points="-221.6,-54.2 -221.6,-54.2 -221.6,-21.4 -246.4,-21.4 
		-246.4,-54.2 -221.6,-54.2 -221.6,-54.2 -221.6,-54.2 -221.6,-54.2 -221.6,-54.6 -246.8,-54.6 -246.8,-21 -221.2,-21 -221.2,-54.6 
		-221.6,-54.6 	"/>
	<line fill="none" stroke="#696968" stroke-miterlimit="10" x1="-251" y1="-54.6" x2="-217" y2="-54.6"/>
	<polyline fill="#686868" stroke="#696968" stroke-miterlimit="10" points="-250.6,-54.2 -216.6,-54.2 -216.6,-54.6 -250.6,-54.6 	
		"/>
	<polygon fill="#686868" stroke="#696968" stroke-miterlimit="10" points="-239.7,-54.2 -239.2,-54.2 -239.2,-58 -227.9,-58 
		-227.9,-54.6 -239.7,-54.6 -239.7,-54.2 -239.2,-54.2 -239.7,-54.2 -239.7,-54.2 -227.5,-54.2 -227.5,-58.4 -239.7,-58.4 
		-239.7,-54.2 	"/>
	<polyline fill="#686868" stroke="#696968" stroke-miterlimit="10" points="-240.1,-48.3 -240.1,-27.3 -239.7,-27.3 -239.7,-48.3 	
		"/>
	<polyline fill="#686868" stroke="#696968" stroke-miterlimit="10" points="-234.2,-48.3 -234.2,-27.3 -233.8,-27.3 -233.8,-48.3 	
		"/>
	<polyline fill="#686868" stroke="#696968" stroke-miterlimit="10" points="-227.9,-48.3 -227.9,-27.3 -227.5,-27.3 -227.5,-48.3 	
		"/>
</g>
<g>
	<path fill="#231F20" d="M754.2-0.1H89.3C66.3-0.1,47,17.8,47,38.9v361.5c0,21.2,19.4,39,42.3,39h308.6v9.9
		c0,12.6,10.8,22.9,24.1,22.9c12.4,0,22.8-9.2,24-21.4l0.1-0.7l0-10.7h308.1c23.3,0,42.3-17.5,42.3-39V38.9
		C796.5,17.8,777.1-0.1,754.2-0.1z M748.8,45.2v349H94.7v-349C154.1,45.2,684.8,45.2,748.8,45.2z"/>
	<path fill="#231F20" d="M523.5,482.3H320c-28.1,0-49.4,24.1-49.4,56.1v32.7c0,13.3,9.9,24,22.1,24h258.5c12.1,0,21.6-10.6,21.6-24
		v-30.9C572.8,507.7,551.1,482.3,523.5,482.3z M529.1,540.8v6.8H314.3V539c0-3.2,0.7-8.6,5.7-8.6h203.5
		C526.1,530.4,529.1,534.8,529.1,540.8z"/>
</g>
<rect x="-181.5" y="385.8" fill="#666666" width="45" height="46.5"/>
</svg>
