<?xml version="1.0" encoding="utf-8"?>
<!-- Generator: Adobe Illustrator 17.1.0, SVG Export Plug-In . SVG Version: 6.00 Build 0)  -->
<!DOCTYPE svg PUBLIC "-//W3C//DTD SVG 1.1//EN" "http://www.w3.org/Graphics/SVG/1.1/DTD/svg11.dtd">
<svg version="1.1" id="Layer_1" xmlns="http://www.w3.org/2000/svg" xmlns:xlink="http://www.w3.org/1999/xlink" x="0px" y="0px"
	 viewBox="0 0 841.9 595.3" enable-background="new 0 0 841.9 595.3" xml:space="preserve">
<path fill="#808184" d="M572.8,480.4c-48.9-21.2-66.7-54.2-72.1-82.7c35.2-28.3,63.2-73.6,78.6-122.3c15.8-20.2,25.1-41.2,25.1-59
	c0-12.2-4.4-21-12.2-27.6C589.5,85.2,516.2,2,425.4,0.7c-0.7,0-1.4-0.1-2.1-0.1c-0.3,0-0.5,0-0.8,0
	c-90.2,0.5-163.4,81.9-167.8,184.1c-11.3,6.8-17.8,16.7-17.8,31.6c0,21,12.7,46.4,34,69.6c15.2,42.5,39.9,81.5,70.3,107.8
	c-5.4,28.5-23.3,61.4-72.1,82.7c-27.6,12-154.7,19.9-181,118.2h665.8C727.5,496.3,600.4,492.3,572.8,480.4z"/>
<polygon fill="#808184" points="208,214.7 118.9,214.7 118.9,125.6 89,125.6 89,214.7 0,214.7 0,244.6 89,244.6 89,333.6 
	118.9,333.6 118.9,244.6 208,244.6 "/>
</svg>
