<?xml version="1.0" standalone="no"?>
<!DOCTYPE svg PUBLIC "-//W3C//DTD SVG 1.1//EN" "http://www.w3.org/Graphics/SVG/1.1/DTD/svg11.dtd">
<svg xmlns="http://www.w3.org/2000/svg">
<metadata>Generated by Fontastic.me</metadata>
<defs>
<font id="untitled-font-1" horiz-adv-x="512">
<font-face font-family="untitled-font-1" units-per-em="512" ascent="480" descent="-32"/>
<missing-glyph horiz-adv-x="512" />

<glyph unicode="&#113;" d="M512 418l-256-324l-256 324z"/>
<glyph unicode="&#97;" d="M341 437l19-18l-171-163l171-163l-19-18l-190 181z"/>
<glyph unicode="&#98;" d="M170 437l-19-18l172-163l-172-163l19-18l191 181z"/>
<glyph unicode="&#99;" d="M0 94l256 324l256-324z"/>
<glyph unicode="&#100;" d="M435 414l2 2l-21 21l-160-160l-158 158l-2 2l-21-21l160-160l-160-160l21-21l160 160l155-155l5-5l21 21l-160 160z"/>
<glyph unicode="&#105;" d="M436 367l-69 69l-151-150l-3-3l-1-6l0-5l-3-35l0-3l0-2l-2-20l22 0l5 0l4 0l35-1l2 1l2-1l3 0l65 65l0-175l-243 0l0 245l168 0l0 26l-195 0l0-297l297 0l0 202l-27 0z m-69 32l31-32l-2-2l-32 32z m-127-160l-4 3l1 5l8-8z m36 6l-31 32l101 101l31-32z"/>
<glyph unicode="&#106;" d="M512 271l-195 156l0-87c-123-11-217-71-281-176c-16-27-26-44-30-54c-4-8-4-12-2-15l0 0l-3-6l4 4l2-3l5 0c4 0 7 2 10 6c11 12 53 51 83 68c51 29 111 43 177 43c13 0 24 0 35-1l0-90z m-176 52l0 64l146-115l-146-117l0 69l-9 0c-15 2-30 2-45 2c-69 0-132-15-186-46c-19-10-38-26-49-35c2 3 4 6 6 9c61 102 149 157 269 168z"/>
<glyph unicode="&#109;" d="M438 270l-168 0l0 167l-28 0l0-167l-168 0l0-28l168 0l0-167l28 0l0 167l168 0z"/>
<glyph unicode="&#110;" d="M96 409l305 0l0-216l28 0l0 243l-361 0l0-361l236 0l0 27l-208 0z m267-216l-43-42l79-77l43 43z m-209 65l0-6c1-54 47-97 103-97c56 0 103 45 103 100c0 56-47 101-103 101c-56 0-102-44-103-98z m173-3c0-38-32-69-71-69c-38 0-70 31-70 69c0 38 32 69 70 69c39 0 71-31 71-69z"/>
<glyph unicode="&#112;" d="M483 412l-23 24l-313-313l-89 89l-23-23l89-89l23-23l0 0l24 23l-1 0z"/>
<glyph unicode="&#114;" d="M387 437l-32 0l0 0l-53 0l-227-1l1-361l361 0l0 314z m-224-207l185 0l1-130l-186 0z m211 25l-235 0l0-90l0-65l-39 0l0 312l60 0l1-83l194 0l0 83l21 0l36-34l0-278l-38 0z m-188 157l144 0l0-58l-144-1z m134-5l-19 0c-2 0-4-2-4-4l0-41c0-2 2-4 4-4l19 0c2 0 3 2 3 4l0 41c0 2-1 4-3 4z m-4-41l-12 0l0 34l12 0z"/>
<glyph unicode="&#77;" d="M73 7l-73 70l136 133l73-71z m414 321l-24 0c0-71-59-129-133-129c-73 0-132 58-132 129c0 72 59 129 132 129c74 0 133-57 133-129l49 0c0 98-82 177-182 177c-101 0-182-79-182-177c0-98 81-177 182-177c100 0 182 79 182 177z"/>
<glyph unicode="&#78;" d="M76 145l-42 41l78 78l41-41z m250 188l-14 0l14 0c0 57-46 104-104 104c-57 0-104-46-104-104c0-57 47-104 104-104c58 0 104 46 104 104z m-103-76c-42 0-76 34-76 76c0 42 34 76 76 76c41 0 75-34 75-76c0-42-34-76-75-76z m173-69l0 86l-27 0l0-86l-86 0l0-27l86 0l0-85l27 0l0 85l85 0l0 27z"/>
<glyph unicode="&#102;" d="M356 418l-19 19l-181-181l181-181l19 19l-162 162z"/>
<glyph unicode="&#104;" d="M421 401l-102 0l0 36l-129 0l0-36l-99 0l0-21l36 0l0-305l252 0l0 305l42 0l0 21z m-209 14l86 0l0-14l-86 0z m146-319l-210 0l0 283l210 0z m-172 247l21 0l0-209l-21 0z m56 0l22 0l0-209l-22 0z m56 0l22 0l0-209l-22 0z"/>
<glyph unicode="&#103;" d="M459 437l-405 0c-14 0-25-11-25-24l0-219c0-13 12-24 25-24l188 0l0-6c0-8 7-14 15-14c7 0 13 6 14 13l0 0l0 7l188 0c14 0 25 10 25 24l0 219c0 13-12 24-25 24z m-4-28l0-212l-397 0l0 212c36 0 358 0 397 0z m-137-265l-123 0c-17 0-30-15-30-34l0-20c0-8 6-15 13-15l157 0c8 0 13 7 13 15l0 19c0 19-13 35-30 35z m4-36l0-4l-131 0l0 5c0 2 1 6 4 6l123 0c2 0 4-3 4-7z"/>
<glyph unicode="&#111;" d="M348 145c-29 13-40 33-44 50c22 17 39 45 48 75c10 12 15 25 15 35c0 8-2 13-7 17c-2 63-46 114-101 114c-1 0-1 1-2 1c0 0 0 0 0 0c-55-1-99-50-102-112c-7-4-11-11-11-20c0-12 8-28 21-42c9-26 24-49 43-65c-4-18-15-38-44-51c-17-7-94-12-110-71l404 0c-16 59-93 62-110 69z m-221 161l-55 0l0 55l-18 0l0-55l-54 0l0-18l54 0l0-54l18 0l0 54l55 0z"/>
<glyph unicode="&#115;" d="M256 436l58-119l131-18l-94-93l22-130l-117 62l-117-62l22 130l-94 93l131 18z"/>
<glyph unicode="&#116;" d="M477 161c-65 107-160 166-285 178l-3 0l0 83l-189-150l189-149l0 87l3 0c13 1 25 2 37 2c68 0 130-16 183-46c31-17 75-58 86-70c2-2 4-4 7-4l3 0l2 3c1 3 3 6-33 66z"/>
<glyph unicode="&#117;" d="M440 196l0 227l-289 0l43-48l198 0l0-179l-71 0l96-121l95 121z m-122-53l-198 0l0 173l70 0l-95 121l-95-121l71 0l0-222l289 0z"/>
<glyph unicode="&#118;" d="M76 145l-42 41l78 78l41-41z m250 188l-14 0l14 0c0 57-46 104-104 104c-57 0-104-46-104-104c0-57 47-104 104-104c58 0 104 46 104 104z m-103-76c-42 0-76 34-76 76c0 42 34 76 76 76c41 0 75-34 75-76c0-42-34-76-75-76z m178-69l-105 0l0-27l185 0l0 27z"/>
<glyph unicode="&#107;" d="M256 438c-76 0-137-62-137-137c0-112 125-218 130-222c2-2 5-3 7-3c2 0 5 1 7 2c3 3 35 30 67 70c18 24 33 47 43 70c13 29 20 57 20 83c0 75-61 137-137 137z m116-137c0-40-18-83-52-130c-25-33-51-59-64-70c-12 10-39 37-64 71c-34 47-52 90-52 129c0 64 52 116 116 116c64 0 116-52 116-116z m-116 71c-39 0-71-32-71-71c0-39 32-71 71-71c39 0 71 32 71 71c0 39-32 71-71 71z m50-71c0-28-22-50-50-50c-28 0-50 22-50 50c0 27 22 50 50 50c28 0 50-22 50-50z"/>
<glyph unicode="&#101;" d="M41 434l0-276l259 0l8-80l95 80l68 0l0 276z m288-306l-1 57l-259 0l0 222l374 0l0-222l-47 0z"/>
<glyph unicode="&#108;" d="M286 75l0 165l59 0l9 64l-68 0l0 41c0 19 6 32 34 32l37 0l0 57c-7 1-28 3-54 3c-52 0-88-30-88-85l0-48l-60 0l0-64l60 0l0-165z"/>
<glyph unicode="&#119;" d="M445 215l0-140l-81 0l0 131c0 33-12 55-41 55c-22 0-36-15-42-30c-2-5-2-12-2-20l0-136l-81 0c0 0 1 221 0 244l81 0l0-34c0-1-1-1-1-1l1 0l0 1c10 16 30 40 73 40c53 0 93-35 93-110z m-332 222c-28 0-46-18-46-42c0-24 17-43 45-43l0 0c28 0 46 19 46 43c0 24-18 42-45 42z m-41-362l81 0l0 244l-81 0z"/>
<glyph unicode="&#120;" d="M158 158c8-9 14-21 14-34c0-13-6-25-14-33c-9-9-21-14-34-14c-13 0-25 5-34 14c-8 8-14 20-14 33c0 13 6 25 14 34c9 9 21 14 34 14c13 0 25-5 34-14z m0 0c0 0 0 0 0 0z m-68-67z m-14 222l0-68c45 0 88-18 119-50c32-31 49-74 50-119l0 0l68 0c0 66-26 125-69 168c-43 43-102 69-168 69z m0 123l0-69c161 0 291-130 291-291l69 0c0 99-41 189-106 254c-65 65-154 106-254 106z"/>
<glyph unicode="&#121;" d="M479 394c-17-7-34-12-53-14c19 11 34 29 40 50c-17-10-37-18-58-22c-16 18-40 29-66 29c-51 0-92-41-92-91c0-8 1-15 3-21c-76 4-144 40-189 95c-7-13-12-29-12-46c0-31 16-59 41-76c-15 1-29 5-42 12c0-1 0-1 0-2c0-44 32-81 74-89c-8-2-16-3-25-3c-5 0-11 0-17 1c12-36 46-62 86-63c-32-25-71-39-114-39c-7 0-14 0-22 1c41-26 89-41 140-41c168 0 260 139 260 260c0 4 0 8 0 12c18 13 33 29 46 47z"/>
</font>
</defs>
</svg>
